<svg width="990" height="1120" viewBox="0 0 990 1120" fill="none" xmlns="http://www.w3.org/2000/svg">
<path opacity="0.5" d="M318.343 45.6942C198.405 146.217 179.819 336.298 98.5892 476.527C70.3124 525.322 33.7749 568.992 14.7119 623.123C-29.0536 747.026 31.1802 887.572 111.801 985.981C150.245 1032.93 195.149 1075.94 249.478 1095.72C291.258 1110.94 336.056 1111.57 380.033 1111.97L1150.5 1119.9C1236.52 1120.77 1332.1 1117.62 1393.95 1051.21C1436.57 1005.48 1453.89 938.692 1468.58 874.944C1486.64 796.613 1503 711.546 1474.91 636.94C1442.82 551.582 1361.67 503.21 1311.26 429.555C1229.45 310.223 1231.33 129.731 1127.14 34.4664C1078.51 -9.99593 1014.33 -27.4321 951.792 -36.1502C833.892 -52.6089 722.215 -21.5408 606.433 -25.8734C507.464 -29.572 400.447 -23.1259 318.343 45.6942Z" fill="#E7ECFF"/>
<path opacity="0.24" d="M559.786 941.613C513.337 946.283 465.463 951.419 424.589 974.264C419.119 977.328 413.564 980.942 410.546 986.458C404.488 997.553 411.363 1012.18 422.032 1018.86C432.701 1025.53 445.865 1026.29 458.42 1026.84C681.987 1036.59 905.889 1032.76 1129.65 1028.96C1194.62 1027.86 1260.63 1026.59 1322.9 1007.72C1334.1 1004.34 1346.4 999.265 1350.61 988.212C1356.13 973.757 1343.55 957.737 1328.88 953.236C1314.2 948.735 1298.55 952.095 1283.37 954.06C1230.68 960.886 1177.52 950.446 1125.05 942.099C1022.35 925.784 915.783 912.512 811.755 910.039C776.289 909.215 746.001 921.515 711.29 926.376C661.173 933.434 610.176 936.541 559.786 941.613Z" fill="#505F98"/>
<path d="M377.077 508.326L492.907 272.408L561.893 306.19L446.063 542.108L377.077 508.326Z" fill="white"/>
<path d="M403.922 501.055L418.036 472.22L464.5 494.903L450.386 523.738L403.922 501.055Z" fill="#505F98"/>
<path d="M403.922 501.055L418.036 472.22L464.5 494.903L450.386 523.738L403.922 501.055Z" fill="url(#paint0_linear)"/>
<path d="M418.038 472.445L432.151 443.61L478.615 466.293L464.502 495.128L418.038 472.445Z" fill="#505F98"/>
<path d="M418.038 472.445L432.151 443.61L478.615 466.293L464.502 495.128L418.038 472.445Z" fill="url(#paint1_linear)"/>
<path d="M432.134 443.826L446.248 414.991L492.712 437.674L478.599 466.509L432.134 443.826Z" fill="#505F98"/>
<path d="M432.134 443.826L446.248 414.991L492.712 437.674L478.599 466.509L432.134 443.826Z" fill="url(#paint2_linear)"/>
<path d="M446.271 415.237L460.384 386.402L506.848 409.085L492.735 437.92L446.271 415.237Z" fill="#505F98"/>
<path d="M446.271 415.237L460.384 386.402L506.848 409.085L492.735 437.92L446.271 415.237Z" fill="url(#paint3_linear)"/>
<path d="M460.377 386.599L474.49 357.764L520.954 380.447L506.841 409.282L460.377 386.599Z" fill="#505F98"/>
<path d="M474.492 358.01L488.606 329.175L535.07 351.858L520.956 380.693L474.492 358.01Z" fill="#505F98"/>
<path d="M488.589 329.391L502.702 300.556L549.166 323.239L535.053 352.074L488.589 329.391Z" fill="#505F98"/>
<path d="M472.904 361.598L487.018 332.763L533.482 355.446L519.368 384.281L472.904 361.598Z" fill="url(#paint4_linear)"/>
<path d="M487.029 332.97L501.142 304.135L547.607 326.817L533.493 355.652L487.029 332.97Z" fill="url(#paint5_linear)"/>
<rect x="787.545" y="826" width="98.0679" height="82" fill="#505F98"/>
<rect x="787.545" y="826" width="98.0679" height="82" fill="url(#paint6_linear)"/>
<rect x="579.401" y="484" width="518.359" height="355" rx="9.37" fill="#505F98"/>
<path opacity="0.65" d="M1080.75 513.438V807.562C1080.77 812.443 1078.84 817.129 1075.4 820.588C1071.96 824.047 1067.29 825.994 1062.41 826H610.748C605.873 825.989 601.203 824.04 597.764 820.582C594.325 817.125 592.399 812.441 592.41 807.562V513.438C592.399 508.559 594.325 503.875 597.764 500.418C601.203 496.96 605.873 495.011 610.748 495H1062.41C1067.29 495.006 1071.96 496.953 1075.4 500.412C1078.84 503.871 1080.77 508.557 1080.75 513.438Z" fill="url(#paint7_linear)"/>
<rect x="742.514" y="898" width="206.143" height="21" fill="#505F98"/>
<rect x="787.545" y="886" width="98.0679" height="12" fill="url(#paint8_linear)"/>
<path fill-rule="evenodd" clip-rule="evenodd" d="M942.653 312.241V332.715L929.944 332.819C928.707 342.346 925.084 351.41 919.405 359.181L930.26 370.351L915.38 384.6L904.694 373.578C898.105 378.062 890.67 381.17 882.838 382.714V396H862.267V383.029C853.483 381.76 845.11 378.497 837.797 373.494L828.861 382.316L814.297 367.647L823.17 358.993C817.584 351.219 814.021 342.191 812.801 332.715H798.553V312.241H813.307C815.136 304.093 818.732 296.441 823.845 289.819L815.604 281.332L830.484 267.082L838.914 275.82C845.885 271.214 853.809 268.228 862.099 267.082V253H882.669V267.396C891.038 269.055 898.947 272.493 905.853 277.476L916.391 267.166L930.871 281.709L920.333 292.187C924.464 298.267 927.397 305.073 928.974 312.241H942.653ZM836.512 325.15C836.488 344.211 852.011 359.682 871.182 359.705C880.394 359.733 889.238 356.113 895.759 349.644C902.281 343.176 905.943 334.392 905.938 325.233C905.961 306.172 890.438 290.701 871.267 290.678C852.095 290.655 836.535 306.088 836.512 325.15Z" fill="#505F98"/>
<path fill-rule="evenodd" clip-rule="evenodd" d="M1018.71 346.354L1017.79 358.396L1010.27 357.938C1009.15 363.475 1006.64 368.641 1002.99 372.958L1008.86 380.021L999.507 387.729L993.747 380.792C989.693 383.13 985.206 384.625 980.558 385.188L979.953 393L967.912 392.104L968.496 384.479C963.411 383.344 958.656 381.056 954.598 377.792L948.964 382.583L941.096 373.396L946.668 368.688C943.74 363.876 942.055 358.414 941.764 352.792L933.646 352.167L934.544 340.146L943.162 340.792C944.586 336.085 947.014 331.743 950.278 328.062L945.834 322.708L955.182 315L959.711 320.5C963.982 318.095 968.738 316.672 973.63 316.333L974.256 308L986.297 308.896L985.65 317.375C990.457 318.714 994.915 321.081 998.714 324.312L1005.33 318.708L1013.18 327.896L1006.5 333.583C1008.66 337.339 1010.08 341.477 1010.67 345.771L1018.71 346.354ZM956.008 349.243C955.153 360.436 963.546 370.203 974.757 371.062C980.151 371.487 985.492 369.747 989.597 366.228C993.703 362.708 996.232 357.7 996.627 352.312C997.469 341.119 989.066 331.361 977.854 330.514C966.642 329.666 956.863 338.05 956.008 349.243Z" fill="#505F98"/>
<path d="M1080.75 513.513V520H592.41V513.513C592.399 508.614 594.325 503.912 597.764 500.44C601.203 496.968 605.874 495.011 610.749 495H1062.41C1067.29 495.006 1071.96 496.961 1075.4 500.434C1078.84 503.907 1080.77 508.613 1080.75 513.513Z" fill="url(#paint9_linear)"/>
<rect x="602.417" y="552" width="47.0326" height="227" fill="url(#paint10_linear)"/>
<rect x="720.499" y="568" width="221.153" height="209" fill="url(#paint11_linear)"/>
<rect x="771.534" y="666" width="7.00485" height="9" fill="url(#paint12_linear)"/>
<rect x="771.534" y="624" width="7.00485" height="9" fill="url(#paint13_linear)"/>
<rect x="676.469" y="666" width="7.00485" height="9" fill="url(#paint14_linear)"/>
<rect x="676.469" y="624" width="7.00485" height="9" fill="url(#paint15_linear)"/>
<rect x="771.534" y="579" width="7.00485" height="9" fill="url(#paint16_linear)"/>
<rect x="677.469" y="579" width="7.00485" height="9" fill="url(#paint17_linear)"/>
<rect x="725.502" y="579" width="7.00485" height="9" fill="url(#paint18_linear)"/>
<rect x="725.502" y="666" width="7.00485" height="9" fill="url(#paint19_linear)"/>
<path fill-rule="evenodd" clip-rule="evenodd" d="M689.478 664H767.532V591H689.478V664ZM759.67 656.282H697.34V598.656H759.67V656.282Z" fill="#505F98"/>
<path fill-rule="evenodd" clip-rule="evenodd" d="M689.478 664H767.532V591H689.478V664ZM759.67 656.282H697.34V598.656H759.67V656.282Z" fill="url(#paint20_linear)"/>
<rect x="973.674" y="532" width="100.069" height="100" fill="url(#paint21_linear)"/>
<rect x="973.674" y="642" width="100.069" height="100" fill="url(#paint22_linear)"/>
<rect opacity="0.65" x="602.417" y="551" width="47.0326" height="13" fill="url(#paint23_linear)"/>
<path d="M399.381 482.827L604.51 318.293L652.622 378.118L447.494 542.652L399.381 482.827Z" fill="white"/>
<path d="M428.105 487.455L453.172 467.235L485.755 507.522L460.687 527.742L428.105 487.455Z" fill="#505F98"/>
<path d="M428.105 487.455L453.172 467.235L485.755 507.522L460.687 527.742L428.105 487.455Z" fill="url(#paint24_linear)"/>
<path d="M451.723 467.689L476.755 447.56L509.19 487.79L484.158 507.919L451.723 467.689Z" fill="#505F98"/>
<path d="M451.723 467.689L476.755 447.56L509.19 487.79L484.158 507.919L451.723 467.689Z" fill="url(#paint25_linear)"/>
<path d="M476.667 447.761L501.699 427.633L534.134 467.863L509.101 487.991L476.667 447.761Z" fill="#505F98"/>
<path d="M476.667 447.761L501.699 427.633L534.134 467.863L509.101 487.991L476.667 447.761Z" fill="url(#paint26_linear)"/>
<path d="M501.594 427.847L526.626 407.718L559.061 447.948L534.029 468.077L501.594 427.847Z" fill="#505F98"/>
<path d="M501.594 427.847L526.626 407.718L559.061 447.948L534.029 468.077L501.594 427.847Z" fill="url(#paint27_linear)"/>
<path d="M527.714 407.389L552.782 387.169L585.364 427.456L560.297 447.676L527.714 407.389Z" fill="#505F98"/>
<path d="M552.794 386.99L577.862 366.77L610.444 407.057L585.377 427.277L552.794 386.99Z" fill="#505F98"/>
<path d="M576.402 368.051L601.434 347.923L633.869 388.153L608.837 408.281L576.402 368.051Z" fill="#505F98"/>
<path d="M606.42 411.218L585.321 428L553.383 387.782L574.482 371L606.42 411.218Z" fill="url(#paint28_linear)"/>
<path d="M573.445 370.648L598.477 350.519L630.912 390.749L605.879 410.878L573.445 370.648Z" fill="url(#paint29_linear)"/>
<path d="M522.362 492.15V615H501.347V492.15C501.347 487.61 504.166 483.57 508.366 482.089V469.825C508.366 467.712 510.041 466 512.109 466C514.176 466 515.852 467.712 515.852 469.825V482.297C519.771 483.935 522.34 487.823 522.362 492.15Z" fill="#505F98"/>
<path d="M522.362 492.15V615H501.347V492.15C501.347 487.61 504.166 483.57 508.366 482.089V469.825C508.366 467.712 510.041 466 512.109 466C514.176 466 515.852 467.712 515.852 469.825V482.297C519.771 483.935 522.34 487.823 522.362 492.15Z" fill="url(#paint30_linear)"/>
<rect x="488.338" y="570" width="50.0346" height="9" rx="2.245" fill="#505F98"/>
<path d="M513.044 652C504.471 652 497.344 639.185 497.344 630.634V574H528.366V630.634C528.366 639.185 521.596 652 513.044 652Z" fill="#505F98"/>
<rect x="488.338" y="570" width="50.0346" height="9" rx="2.245" fill="url(#paint31_linear)"/>
<path d="M513.044 652C504.471 652 497.344 639.366 497.344 630.937V579H528.366V630.937C528.366 639.366 521.596 652 513.044 652Z" fill="url(#paint32_linear)"/>
<path d="M713.136 712C712.463 708.436 712.037 703.39 713.331 703.043C716.059 702.275 713.136 712 713.136 712Z" fill="#28353D"/>
<path d="M856.395 907.507C855.909 920.102 846.147 966.388 845.83 979.004C845.83 983.202 846.95 989.647 845.597 993.698C842.808 1002.28 832.919 1001.11 831.63 996.049L831.144 993.53C826.559 969.012 833.933 941.198 831.144 909.186C829.475 889.643 821.699 851.963 816.606 851.711C813.923 851.711 752.665 980.851 747.34 988.807C744.72 992.817 737.345 992.187 733.774 995.42C730.203 998.652 763.526 897.515 777.493 844.07C780.751 833.039 782.875 821.709 783.833 810.252C784.213 803.64 782.079 801.415 788.185 799.463C792.412 798.119 798.265 798.497 802.787 798.182C807.71 797.804 853.5 797.72 853.5 800.953C853.057 818.502 857.578 878.412 856.395 907.507Z" fill="#606161"/>
<path d="M856.395 907.507C855.909 920.102 846.147 966.388 845.83 979.004C845.83 983.202 846.95 989.647 845.597 993.698C842.808 1002.28 832.919 1001.11 831.63 996.049L831.144 993.53C826.559 969.012 833.933 941.198 831.144 909.186C829.475 889.643 821.699 851.963 816.606 851.711C813.923 851.711 752.665 980.851 747.34 988.807C744.72 992.817 737.345 992.187 733.774 995.42C730.203 998.652 763.526 897.515 777.493 844.07C780.751 833.039 782.875 821.709 783.833 810.252C784.213 803.64 782.079 801.415 788.185 799.463C792.412 798.119 798.265 798.497 802.787 798.182C807.71 797.804 853.5 797.72 853.5 800.953C853.057 818.502 857.578 878.412 856.395 907.507Z" fill="url(#paint33_linear)"/>
<path d="M802.322 639.148C801.937 635.163 800.054 633 798.215 633C796.375 633 795.241 635.12 795.626 639.148C795.713 642.122 797.957 644.597 800.932 645C802.793 645 802.729 643.134 802.322 639.148Z" fill="#FFCD9C"/>
<path d="M834.716 639.159C834.966 635.166 836.803 633 838.702 633C840.601 633 841.832 635.124 841.54 639.159C841.514 642.173 839.268 644.687 836.323 645C834.445 645 834.424 643.152 834.716 639.159Z" fill="#FFCD9C"/>
<path d="M838.44 656.672C838.181 658.777 829.266 668 819.121 668C808.976 668 800.6 659.577 798.83 656.208C797.06 652.839 804.184 609.505 808.306 605.884C812.429 602.262 829.137 604.641 830.54 606.558C833.907 611.085 839.541 648.27 838.44 656.672Z" fill="#F4AD7D"/>
<path d="M834.246 623.977C832.867 624.639 827.452 610.842 826.316 608.525C825.18 606.208 825.362 603.829 826.742 603.167C828.121 602.505 830.149 603.871 831.285 606.167C832.421 608.463 835.605 623.336 834.246 623.977Z" fill="#FFCD9C"/>
<path d="M803.876 622.987C802.446 622.501 806.233 608.179 807.059 605.703C807.885 603.228 809.739 601.599 811.089 602.086C812.439 602.573 813.003 604.984 812.177 607.481C811.351 609.977 805.226 623.474 803.876 622.987Z" fill="#FFCD9C"/>
<path d="M809.553 655H831.317L834.578 675.622C822.722 682.005 815.81 681.301 806.559 674.214L809.553 655Z" fill="#F4AD7D"/>
<path d="M818.567 659.13C818.567 658.75 819.472 658.43 820.568 658.43C821.664 658.43 822.57 658.75 822.57 659.13C822.57 659.51 821.688 659.57 820.568 659.57C819.448 659.57 818.567 659.53 818.567 659.13Z" fill="#F4AD7D"/>
<path d="M839.6 649.808C840.424 644.894 841.768 609.708 838.473 605.051C835.177 600.394 815.449 597.381 812.457 598.108C805.758 599.731 806.929 604.517 806.929 604.517C804.938 604.547 802.989 605.084 801.271 606.076C798.973 607.615 794.138 629.79 797.997 646.56C799.732 654.102 806.561 660.66 818.354 660.981C832.879 661.365 838.603 655.896 839.6 649.808Z" fill="#606161"/>
<path d="M812.539 599.762C814.098 598.448 816.118 597.828 818.138 598.041C824.271 598.008 830.355 599.14 836.073 601.376C839.243 602.488 842.122 604.311 844.493 606.708C846.88 609.173 847.979 612.627 847.461 616.034C846.408 621.047 841.146 624.148 839.42 628.97C838.031 632.837 839.02 636.575 839.062 640.463C839.09 643.606 838.865 646.746 838.388 649.852C837.42 655.906 831.884 661.344 817.675 660.983C806.224 660.664 799.593 654.143 797.909 646.644C795.629 634.198 796.227 621.389 799.656 609.215C805.828 610.648 812.142 611.361 818.475 611.339C825.19 611.395 831.886 610.611 838.409 609.002C839.525 615.503 839.504 628.524 839.146 638.253" fill="#606161"/>
<path d="M777.41 671.954C773.976 672.241 770.668 673.384 767.785 675.28C762.847 679.171 762.472 686.43 762.556 692.748C762.387 701.501 762.993 710.252 764.368 718.897C765.848 726.826 768.535 734.441 770.743 742.202C774.224 754.831 776.052 767.862 776.181 780.966C776.181 788.162 776.056 796.07 780.535 801.697C785.431 807.806 794.098 808.998 801.89 809.438C812.953 810.086 824.057 810.17 835.12 809.709C842.537 809.375 850.433 808.643 856.308 804.082C860.996 800.442 871.975 677.288 863.454 674.171C854.933 671.054 845.766 670.259 836.724 669.506C816.453 667.791 797.369 666.431 777.41 671.954Z" fill="#505F98"/>
<path d="M841.23 927.291C840.143 941.255 837.551 992 837.551 992L830.946 991.77C826.41 967.39 833.705 939.732 830.946 907.899C829.295 888.465 821.603 850.996 816.565 850.746C818.07 838.221 826.536 840.1 826.536 840.1C832.692 849.294 838.002 859.026 842.4 869.178C847.438 882.37 842.337 913.263 841.23 927.291Z" fill="url(#paint34_linear)"/>
<path d="M716.873 993.024C715.841 993.786 715.058 994.83 714.621 996.025C714.386 997.009 714.481 998.04 714.892 998.965C716.058 1001.33 718.269 1003.02 720.876 1003.55C723.453 1004.04 726.091 1004.13 728.696 1003.82L737.036 1003.26C739.158 1003.21 741.264 1002.87 743.292 1002.26C745.322 1001.63 746.998 1000.2 747.921 998.308C748.412 996.916 748.604 995.438 748.484 993.969C748.484 987.164 746.065 981.634 738.517 983.299C730.61 984.765 723.183 988.102 716.873 993.024Z" fill="#505F98"/>
<path d="M855.411 996.063C856.359 996.759 857.077 997.709 857.478 998.797C857.692 999.682 857.608 1000.61 857.239 1001.45C856.176 1003.58 854.146 1005.11 851.755 1005.58C849.398 1006.04 846.981 1006.12 844.596 1005.83L837.024 1005.33C835.098 1005.28 833.187 1004.98 831.345 1004.43C829.488 1003.86 827.958 1002.57 827.123 1000.85C826.675 999.595 826.498 998.26 826.601 996.932C826.601 990.785 828.777 985.72 835.718 987.288C842.915 988.619 849.672 991.63 855.411 996.063Z" fill="#505F98"/>
<path d="M864.599 674C864.599 674 897.314 693.163 907.14 717.389C916.965 741.614 874.961 800 874.961 800L865.972 790.814C865.972 790.814 887.897 746.759 884.507 735.74C881.117 724.721 867.838 714.452 867.838 714.452L864.599 674Z" fill="#505F98"/>
<path d="M771.534 711.859C771.534 711.859 726.046 732.24 707.561 722.238C689.076 712.237 708.106 662 708.106 662L720.486 666.202C720.486 666.202 710.142 691.815 721.975 695.618C733.809 699.421 769.268 674.438 769.268 674.438L771.534 711.859Z" fill="#505F98"/>
<path d="M857.175 798.976C855.866 799.826 854.806 800.968 854.09 802.297C853.66 803.425 853.505 804.629 853.637 805.819C853.557 808.709 854.872 811.479 857.218 813.367C858.866 814.25 860.713 814.76 862.611 814.857C863.774 815.048 864.964 815.048 866.128 814.857C867.314 814.646 868.305 813.888 868.759 812.844C868.914 812.183 868.98 811.507 868.954 810.831C869.105 807.51 871.607 804.793 873.678 802.076C874.178 801.551 874.501 800.9 874.606 800.204C874.594 799.434 874.305 798.69 873.786 798.091C872.384 796.199 868.91 792.717 866.128 793.018C863.345 793.32 859.332 797.326 857.175 798.976Z" fill="#F4AD7D"/>
<path d="M728.294 654.435C728.886 653.611 729.29 652.679 729.48 651.698C729.631 650.683 729.094 649.687 728.14 649.211C726.624 648.647 724.822 650.13 723.328 649.504C722.822 649.235 722.399 648.846 722.098 648.375C720.333 645.945 719.321 643.093 719.175 640.143C719.261 638.571 719.113 636.995 718.736 635.463C718.292 633.886 716.708 632.849 715.001 633.018C713.595 633.331 712.804 634.689 711.925 635.776C711.046 636.863 709.288 638.158 708.146 639.516C706.195 642.307 705.079 645.55 704.916 648.898C704.301 653.077 703.905 657.861 706.981 660.87C709.354 663.189 716.583 665.927 719.9 664.694C723.57 663.315 726.448 657.444 728.294 654.435Z" fill="#F4AD7D"/>
<defs>
<linearGradient id="paint0_linear" x1="528.11" y1="568.166" x2="592.864" y2="439.6" gradientUnits="userSpaceOnUse">
<stop stop-color="#010101" stop-opacity="0.01"/>
<stop offset="0.95" stop-color="#010101"/>
</linearGradient>
<linearGradient id="paint1_linear" x1="583.271" y1="564.365" x2="676.125" y2="382.775" gradientUnits="userSpaceOnUse">
<stop stop-color="#010101" stop-opacity="0.01"/>
<stop offset="0.95" stop-color="#010101"/>
</linearGradient>
<linearGradient id="paint2_linear" x1="703.253" y1="573.092" x2="840.607" y2="262.948" gradientUnits="userSpaceOnUse">
<stop stop-color="#010101" stop-opacity="0.01"/>
<stop offset="0.95" stop-color="#010101"/>
</linearGradient>
<linearGradient id="paint3_linear" x1="831.087" y1="589.583" x2="1036.02" y2="142.179" gradientUnits="userSpaceOnUse">
<stop stop-color="#010101" stop-opacity="0.01"/>
<stop offset="0.36" stop-color="#010101" stop-opacity="0.36"/>
<stop offset="0.95" stop-color="#010101"/>
</linearGradient>
<linearGradient id="paint4_linear" x1="682.434" y1="484.564" x2="799.594" y2="242.969" gradientUnits="userSpaceOnUse">
<stop stop-color="white" stop-opacity="0.01"/>
<stop offset="0.07" stop-color="white" stop-opacity="0.22"/>
<stop offset="0.16" stop-color="white" stop-opacity="0.45"/>
<stop offset="0.25" stop-color="white" stop-opacity="0.65"/>
<stop offset="0.33" stop-color="white" stop-opacity="0.8"/>
<stop offset="0.4" stop-color="white" stop-opacity="0.91"/>
<stop offset="0.46" stop-color="white" stop-opacity="0.98"/>
<stop offset="0.51" stop-color="white"/>
</linearGradient>
<linearGradient id="paint5_linear" x1="604.358" y1="431.444" x2="668.555" y2="295.555" gradientUnits="userSpaceOnUse">
<stop stop-color="white" stop-opacity="0.01"/>
<stop offset="0.07" stop-color="white" stop-opacity="0.22"/>
<stop offset="0.16" stop-color="white" stop-opacity="0.45"/>
<stop offset="0.25" stop-color="white" stop-opacity="0.65"/>
<stop offset="0.33" stop-color="white" stop-opacity="0.8"/>
<stop offset="0.4" stop-color="white" stop-opacity="0.91"/>
<stop offset="0.46" stop-color="white" stop-opacity="0.98"/>
<stop offset="0.51" stop-color="white"/>
</linearGradient>
<linearGradient id="paint6_linear" x1="909.68" y1="894.322" x2="920.101" y2="767.584" gradientUnits="userSpaceOnUse">
<stop stop-color="#010101" stop-opacity="0.01"/>
<stop offset="0.95" stop-color="#010101"/>
</linearGradient>
<linearGradient id="paint7_linear" x1="507.967" y1="431.517" x2="505.252" y2="881.071" gradientUnits="userSpaceOnUse">
<stop stop-color="white" stop-opacity="0.01"/>
<stop offset="0.07" stop-color="white" stop-opacity="0.22"/>
<stop offset="0.16" stop-color="white" stop-opacity="0.45"/>
<stop offset="0.25" stop-color="white" stop-opacity="0.65"/>
<stop offset="0.33" stop-color="white" stop-opacity="0.8"/>
<stop offset="0.4" stop-color="white" stop-opacity="0.91"/>
<stop offset="0.46" stop-color="white" stop-opacity="0.98"/>
<stop offset="0.51" stop-color="white"/>
</linearGradient>
<linearGradient id="paint8_linear" x1="254.313" y1="869.073" x2="254.413" y2="1011.31" gradientUnits="userSpaceOnUse">
<stop stop-color="#010101" stop-opacity="0.01"/>
<stop offset="0.95" stop-color="#010101"/>
</linearGradient>
<linearGradient id="paint9_linear" x1="1406.73" y1="614.966" x2="1440.91" y2="207.855" gradientUnits="userSpaceOnUse">
<stop stop-color="white" stop-opacity="0.01"/>
<stop offset="0.07" stop-color="white" stop-opacity="0.22"/>
<stop offset="0.16" stop-color="white" stop-opacity="0.45"/>
<stop offset="0.25" stop-color="white" stop-opacity="0.65"/>
<stop offset="0.33" stop-color="white" stop-opacity="0.8"/>
<stop offset="0.4" stop-color="white" stop-opacity="0.91"/>
<stop offset="0.46" stop-color="white" stop-opacity="0.98"/>
<stop offset="0.51" stop-color="white"/>
</linearGradient>
<linearGradient id="paint10_linear" x1="579.846" y1="504.87" x2="717.853" y2="873.142" gradientUnits="userSpaceOnUse">
<stop stop-color="white" stop-opacity="0.01"/>
<stop offset="0.07" stop-color="white" stop-opacity="0.22"/>
<stop offset="0.16" stop-color="white" stop-opacity="0.45"/>
<stop offset="0.25" stop-color="white" stop-opacity="0.65"/>
<stop offset="0.33" stop-color="white" stop-opacity="0.8"/>
<stop offset="0.4" stop-color="white" stop-opacity="0.91"/>
<stop offset="0.46" stop-color="white" stop-opacity="0.98"/>
<stop offset="0.51" stop-color="white"/>
</linearGradient>
<linearGradient id="paint11_linear" x1="683.377" y1="527.99" x2="680.051" y2="810.698" gradientUnits="userSpaceOnUse">
<stop stop-color="white" stop-opacity="0.01"/>
<stop offset="0.07" stop-color="white" stop-opacity="0.22"/>
<stop offset="0.16" stop-color="white" stop-opacity="0.45"/>
<stop offset="0.25" stop-color="white" stop-opacity="0.65"/>
<stop offset="0.33" stop-color="white" stop-opacity="0.8"/>
<stop offset="0.4" stop-color="white" stop-opacity="0.91"/>
<stop offset="0.46" stop-color="white" stop-opacity="0.98"/>
<stop offset="0.51" stop-color="white"/>
</linearGradient>
<linearGradient id="paint12_linear" x1="999.211" y1="719.704" x2="1018.4" y2="141.785" gradientUnits="userSpaceOnUse">
<stop stop-color="#010101" stop-opacity="0.01"/>
<stop offset="0.95" stop-color="#010101"/>
</linearGradient>
<linearGradient id="paint13_linear" x1="998.359" y1="720.045" x2="1017.55" y2="142.125" gradientUnits="userSpaceOnUse">
<stop stop-color="#010101" stop-opacity="0.01"/>
<stop offset="0.95" stop-color="#010101"/>
</linearGradient>
<linearGradient id="paint14_linear" x1="904.18" y1="717.354" x2="923.396" y2="139.435" gradientUnits="userSpaceOnUse">
<stop stop-color="#010101" stop-opacity="0.01"/>
<stop offset="0.95" stop-color="#010101"/>
</linearGradient>
<linearGradient id="paint15_linear" x1="903.328" y1="717.694" x2="922.544" y2="139.776" gradientUnits="userSpaceOnUse">
<stop stop-color="#010101" stop-opacity="0.01"/>
<stop offset="0.95" stop-color="#010101"/>
</linearGradient>
<linearGradient id="paint16_linear" x1="997.421" y1="721.545" x2="1016.64" y2="143.627" gradientUnits="userSpaceOnUse">
<stop stop-color="#010101" stop-opacity="0.01"/>
<stop offset="0.95" stop-color="#010101"/>
</linearGradient>
<linearGradient id="paint17_linear" x1="903.39" y1="719.236" x2="922.578" y2="141.317" gradientUnits="userSpaceOnUse">
<stop stop-color="#010101" stop-opacity="0.01"/>
<stop offset="0.95" stop-color="#010101"/>
</linearGradient>
<linearGradient id="paint18_linear" x1="951.38" y1="720.396" x2="970.597" y2="142.499" gradientUnits="userSpaceOnUse">
<stop stop-color="#010101" stop-opacity="0.01"/>
<stop offset="0.95" stop-color="#010101"/>
</linearGradient>
<linearGradient id="paint19_linear" x1="953.196" y1="717.843" x2="972.413" y2="139.925" gradientUnits="userSpaceOnUse">
<stop stop-color="#010101" stop-opacity="0.01"/>
<stop offset="0.95" stop-color="#010101"/>
</linearGradient>
<linearGradient id="paint20_linear" x1="608.119" y1="732.399" x2="840.351" y2="949.094" gradientUnits="userSpaceOnUse">
<stop stop-color="white" stop-opacity="0.01"/>
<stop offset="0.07" stop-color="white" stop-opacity="0.22"/>
<stop offset="0.16" stop-color="white" stop-opacity="0.45"/>
<stop offset="0.25" stop-color="white" stop-opacity="0.65"/>
<stop offset="0.33" stop-color="white" stop-opacity="0.8"/>
<stop offset="0.4" stop-color="white" stop-opacity="0.91"/>
<stop offset="0.46" stop-color="white" stop-opacity="0.98"/>
<stop offset="0.51" stop-color="white"/>
</linearGradient>
<linearGradient id="paint21_linear" x1="956.986" y1="512.864" x2="955.2" y2="648.026" gradientUnits="userSpaceOnUse">
<stop stop-color="white" stop-opacity="0.01"/>
<stop offset="0.07" stop-color="white" stop-opacity="0.22"/>
<stop offset="0.16" stop-color="white" stop-opacity="0.45"/>
<stop offset="0.25" stop-color="white" stop-opacity="0.65"/>
<stop offset="0.33" stop-color="white" stop-opacity="0.8"/>
<stop offset="0.4" stop-color="white" stop-opacity="0.91"/>
<stop offset="0.46" stop-color="white" stop-opacity="0.98"/>
<stop offset="0.51" stop-color="white"/>
</linearGradient>
<linearGradient id="paint22_linear" x1="956.986" y1="622.864" x2="955.2" y2="758.026" gradientUnits="userSpaceOnUse">
<stop stop-color="white" stop-opacity="0.01"/>
<stop offset="0.07" stop-color="white" stop-opacity="0.22"/>
<stop offset="0.16" stop-color="white" stop-opacity="0.45"/>
<stop offset="0.25" stop-color="white" stop-opacity="0.65"/>
<stop offset="0.33" stop-color="white" stop-opacity="0.8"/>
<stop offset="0.4" stop-color="white" stop-opacity="0.91"/>
<stop offset="0.46" stop-color="white" stop-opacity="0.98"/>
<stop offset="0.51" stop-color="white"/>
</linearGradient>
<linearGradient id="paint23_linear" x1="593.145" y1="548.281" x2="593.128" y2="566.481" gradientUnits="userSpaceOnUse">
<stop stop-color="white" stop-opacity="0.01"/>
<stop offset="0.07" stop-color="white" stop-opacity="0.22"/>
<stop offset="0.16" stop-color="white" stop-opacity="0.45"/>
<stop offset="0.25" stop-color="white" stop-opacity="0.65"/>
<stop offset="0.33" stop-color="white" stop-opacity="0.8"/>
<stop offset="0.4" stop-color="white" stop-opacity="0.91"/>
<stop offset="0.46" stop-color="white" stop-opacity="0.98"/>
<stop offset="0.51" stop-color="white"/>
</linearGradient>
<linearGradient id="paint24_linear" x1="512.445" y1="601.052" x2="625.876" y2="511.635" gradientUnits="userSpaceOnUse">
<stop stop-color="#010101" stop-opacity="0.01"/>
<stop offset="0.95" stop-color="#010101"/>
</linearGradient>
<linearGradient id="paint25_linear" x1="562.284" y1="620.988" x2="723.56" y2="495.867" gradientUnits="userSpaceOnUse">
<stop stop-color="#010101" stop-opacity="0.01"/>
<stop offset="0.95" stop-color="#010101"/>
</linearGradient>
<linearGradient id="paint26_linear" x1="667.228" y1="679.751" x2="923.392" y2="457.028" gradientUnits="userSpaceOnUse">
<stop stop-color="#010101" stop-opacity="0.01"/>
<stop offset="0.95" stop-color="#010101"/>
</linearGradient>
<linearGradient id="paint27_linear" x1="775.987" y1="748.865" x2="1151.67" y2="430.45" gradientUnits="userSpaceOnUse">
<stop stop-color="#010101" stop-opacity="0.01"/>
<stop offset="0.36" stop-color="#010101" stop-opacity="0.36"/>
<stop offset="0.95" stop-color="#010101"/>
</linearGradient>
<linearGradient id="paint28_linear" x1="624.246" y1="511.751" x2="807.185" y2="380.322" gradientUnits="userSpaceOnUse">
<stop stop-color="white" stop-opacity="0.01"/>
<stop offset="0.07" stop-color="white" stop-opacity="0.22"/>
<stop offset="0.16" stop-color="white" stop-opacity="0.45"/>
<stop offset="0.25" stop-color="white" stop-opacity="0.65"/>
<stop offset="0.33" stop-color="white" stop-opacity="0.8"/>
<stop offset="0.4" stop-color="white" stop-opacity="0.91"/>
<stop offset="0.46" stop-color="white" stop-opacity="0.98"/>
<stop offset="0.51" stop-color="white"/>
</linearGradient>
<linearGradient id="paint29_linear" x1="637.859" y1="509.517" x2="753.717" y2="413.658" gradientUnits="userSpaceOnUse">
<stop stop-color="white" stop-opacity="0.01"/>
<stop offset="0.07" stop-color="white" stop-opacity="0.22"/>
<stop offset="0.16" stop-color="white" stop-opacity="0.45"/>
<stop offset="0.25" stop-color="white" stop-opacity="0.65"/>
<stop offset="0.33" stop-color="white" stop-opacity="0.8"/>
<stop offset="0.4" stop-color="white" stop-opacity="0.91"/>
<stop offset="0.46" stop-color="white" stop-opacity="0.98"/>
<stop offset="0.51" stop-color="white"/>
</linearGradient>
<linearGradient id="paint30_linear" x1="503.446" y1="675.745" x2="541.631" y2="675.767" gradientUnits="userSpaceOnUse">
<stop stop-color="white" stop-opacity="0.01"/>
<stop offset="0.07" stop-color="white" stop-opacity="0.22"/>
<stop offset="0.16" stop-color="white" stop-opacity="0.45"/>
<stop offset="0.25" stop-color="white" stop-opacity="0.65"/>
<stop offset="0.33" stop-color="white" stop-opacity="0.8"/>
<stop offset="0.4" stop-color="white" stop-opacity="0.91"/>
<stop offset="0.46" stop-color="white" stop-opacity="0.98"/>
<stop offset="0.51" stop-color="white"/>
</linearGradient>
<linearGradient id="paint31_linear" x1="430.154" y1="578.2" x2="441.805" y2="616.932" gradientUnits="userSpaceOnUse">
<stop stop-color="#010101" stop-opacity="0.01"/>
<stop offset="0.95" stop-color="#010101"/>
</linearGradient>
<linearGradient id="paint32_linear" x1="454.952" y1="726.933" x2="555.855" y2="728.976" gradientUnits="userSpaceOnUse">
<stop stop-color="#010101" stop-opacity="0.01"/>
<stop offset="0.95" stop-color="#010101"/>
</linearGradient>
<linearGradient id="paint33_linear" x1="857.723" y1="884.512" x2="761.63" y2="719.732" gradientUnits="userSpaceOnUse">
<stop stop-color="#010101" stop-opacity="0.01"/>
<stop offset="0.95" stop-color="#010101"/>
</linearGradient>
<linearGradient id="paint34_linear" x1="858.746" y1="422.892" x2="685.86" y2="427.761" gradientUnits="userSpaceOnUse">
<stop stop-color="#010101" stop-opacity="0.01"/>
<stop offset="0.95" stop-color="#010101"/>
</linearGradient>
</defs>
</svg>
